Format : AVI
Format/Info : Audio Video Interleave
File size : 784 MiB
Duration : 1h 33mn
Overall bit rate : 1 178 Kbps
Writing application : VirtualDubMod 1.5.10.2 (build 2540/release)
Writing library : VirtualDub build 32842/release

Video
ID : 0
Format : MPEG-4 Visual
Format profile : Advanced Simple@L5
Format settings, BVOP : 2
Format settings, QPel : No
Format settings, GMC : No warppoints
Format settings, Matrix : Default (H.263)
Muxing mode : Packed bitstream
Codec ID : XVID
Codec ID/Hint : XviD
Duration : 1h 33mn
Bit rate : 1 035 Kbps
Width : 640 pixels
Height : 352 pixels
Display aspect ratio : 16:9
Frame rate : 25.000 fps
Color space : YUV
Chroma subsampling : 4:2:0
Bit depth : 8 bits
Scan type : Progressive
Compression mode : Lossy
Bits/(Pixel*Frame) : 0.184
Stream size : 689 MiB (88%)
Writing library : XviD 64

Audio
ID : 1
Format : MPEG Audio
Format version : Version 1
Format profile : Layer 3
Mode : Joint stereo
Mode extension : MS Stereo
Codec ID : 55
Codec ID/Hint : MP3
Duration : 1h 33mn
Bit rate mode : Variable
Bit rate : 128 Kbps
Channel(s) : 2 channels
Sampling rate : 48.0 KHz
Compression mode : Lossy
Stream size : 86.7 MiB (11%)
Alignment : Aligned on interleaves
Interleave, duration : 24 ms (0.60 video frame)
Interleave, preload duration : 460 ms
Writing library : LAME3.90.
Encoding settings : -m j -V 4 -q 2 -lowpass 17.6 --abr 128





 
http://www.imdb.com/title/tt1389086/









Users: (16 votes) 2 reviews | Critics: 5 reviews


Fig is a knockabout Aussie bloke who loves his lady, his two kids and his Harley, though not necessarily in that order. All in all life is pretty sweet, but when lady Sheree puts the hard word on him to get hitched, everything goes pear-shaped.

Director: Chris Moon
Writer: Chris Moon (screenwriter)
Stars: Michael Allen, Peta Astbury and Andrew Bartlett

